<svg xmlns="http://www.w3.org/2000/svg" width="896" height="1200" viewBox="0 0 896 1200" role="img" aria-label="Vaaram Magazine issue 198 cover">
  <rect width="896" height="1200" fill="#a83722"/>

  <!-- Masthead -->
  <text x="64" y="196" font-family="Georgia, 'Times New Roman', serif" font-size="150" font-weight="500" letter-spacing="-6" fill="#fdf3ef">Vaaram</text>
  <rect x="64" y="228" width="768" height="2" fill="#f0c9a0"/>

  <!-- Standfirst -->
  <text x="64" y="268" font-family="Helvetica, Arial, sans-serif" font-size="17" font-weight="700" letter-spacing="4.2" fill="#f0c9a0">WEEKLY ADVERTISING MAGAZINE</text>
  <text x="64" y="300" font-family="Helvetica, Arial, sans-serif" font-size="15" letter-spacing="1.2" fill="#fdf3ef" opacity="0.72">Discover. Connect. Every week.</text>

  <!-- Issue plate -->
  <text x="832" y="196" text-anchor="end" font-family="Helvetica, Arial, sans-serif" font-size="15" font-weight="700" letter-spacing="3" fill="#fdf3ef" opacity="0.6">ISSUE</text>
  <text x="832" y="268" text-anchor="end" font-family="Georgia, serif" font-size="76" font-weight="500" fill="#f0c9a0">198</text>
  <text x="832" y="300" text-anchor="end" font-family="Helvetica, Arial, sans-serif" font-size="15" letter-spacing="0.6" fill="#fdf3ef" opacity="0.72">July 26, 2026</text>

  <!-- Cover line -->
  <text x="64" y="392" font-family="Georgia, serif" font-size="46" font-weight="500" letter-spacing="-1.2" fill="#fdf3ef">Everything local,</text>
  <text x="64" y="440" font-family="Georgia, serif" font-size="46" font-weight="500" letter-spacing="-1.2" fill="#f0c9a0">in one edition.</text>

  <!-- The advertisement grid: the actual content of the magazine -->
  <rect x="64.0" y="470" width="183.0" height="74" rx="3" fill="#96301d"/><rect x="76.0" y="486" width="82.0" height="7" rx="2" fill="#c2603f" opacity="0.95"/><rect x="76.0" y="500" width="129.7" height="4" rx="2" fill="#c2603f" opacity="0.5"/><rect x="259.0" y="470" width="378.0" height="74" rx="3" fill="#96301d"/><rect x="271.0" y="486" width="217.2" height="7" rx="2" fill="#c2603f" opacity="0.95"/><rect x="271.0" y="500" width="245.4" height="4" rx="2" fill="#c2603f" opacity="0.5"/><rect x="649.0" y="470" width="183.0" height="74" rx="3" fill="#96301d"/><rect x="661.0" y="486" width="136.1" height="7" rx="2" fill="#c2603f" opacity="0.95"/><rect x="661.0" y="500" width="111.7" height="4" rx="2" fill="#c2603f" opacity="0.5"/><rect x="64.0" y="556" width="378.0" height="160" rx="3" fill="#96301d"/><rect x="76.0" y="572" width="191.0" height="7" rx="2" fill="#c2603f" opacity="0.95"/><rect x="76.0" y="586" width="290.8" height="4" rx="2" fill="#c2603f" opacity="0.5"/><rect x="76.0" y="600" width="271.2" height="4" rx="2" fill="#c2603f" opacity="0.5"/><rect x="76.0" y="614" width="277.4" height="4" rx="2" fill="#c2603f" opacity="0.5"/><rect x="454.0" y="556" width="378.0" height="74" rx="3" fill="#96301d"/><rect x="466.0" y="572" width="182.9" height="7" rx="2" fill="#c2603f" opacity="0.95"/><rect x="466.0" y="586" width="241.8" height="4" rx="2" fill="#c2603f" opacity="0.5"/><rect x="454.0" y="642" width="183.0" height="74" rx="3" fill="#f0c9a0"/><rect x="466.0" y="658" width="139.7" height="7" rx="2" fill="#a83722" opacity="0.95"/><rect x="466.0" y="672" width="86.8" height="4" rx="2" fill="#a83722" opacity="0.5"/><rect x="649.0" y="642" width="183.0" height="74" rx="3" fill="#96301d"/><rect x="661.0" y="658" width="132.2" height="7" rx="2" fill="#c2603f" opacity="0.95"/><rect x="661.0" y="672" width="124.8" height="4" rx="2" fill="#c2603f" opacity="0.5"/><rect x="64.0" y="728" width="183.0" height="160" rx="3" fill="#96301d"/><rect x="76.0" y="744" width="125.5" height="7" rx="2" fill="#c2603f" opacity="0.95"/><rect x="76.0" y="758" width="89.8" height="4" rx="2" fill="#c2603f" opacity="0.5"/><rect x="76.0" y="772" width="115.2" height="4" rx="2" fill="#c2603f" opacity="0.5"/><rect x="76.0" y="786" width="84.6" height="4" rx="2" fill="#c2603f" opacity="0.5"/><rect x="259.0" y="728" width="183.0" height="74" rx="3" fill="#96301d"/><rect x="271.0" y="744" width="134.7" height="7" rx="2" fill="#c2603f" opacity="0.95"/><rect x="271.0" y="758" width="94.2" height="4" rx="2" fill="#c2603f" opacity="0.5"/><rect x="454.0" y="728" width="183.0" height="74" rx="3" fill="#96301d"/><rect x="466.0" y="744" width="143.7" height="7" rx="2" fill="#c2603f" opacity="0.95"/><rect x="466.0" y="758" width="111.2" height="4" rx="2" fill="#c2603f" opacity="0.5"/><rect x="649.0" y="728" width="183.0" height="74" rx="3" fill="#96301d"/><rect x="661.0" y="744" width="125.5" height="7" rx="2" fill="#c2603f" opacity="0.95"/><rect x="661.0" y="758" width="147.4" height="4" rx="2" fill="#c2603f" opacity="0.5"/><rect x="259.0" y="814" width="183.0" height="74" rx="3" fill="#96301d"/><rect x="271.0" y="830" width="147.8" height="7" rx="2" fill="#c2603f" opacity="0.95"/><rect x="271.0" y="844" width="85.2" height="4" rx="2" fill="#c2603f" opacity="0.5"/><rect x="454.0" y="814" width="183.0" height="74" rx="3" fill="#96301d"/><rect x="466.0" y="830" width="147.9" height="7" rx="2" fill="#c2603f" opacity="0.95"/><rect x="466.0" y="844" width="102.5" height="4" rx="2" fill="#c2603f" opacity="0.5"/><rect x="649.0" y="814" width="183.0" height="74" rx="3" fill="#96301d"/><rect x="661.0" y="830" width="155.2" height="7" rx="2" fill="#c2603f" opacity="0.95"/><rect x="661.0" y="844" width="135.3" height="4" rx="2" fill="#c2603f" opacity="0.5"/><rect x="64.0" y="900" width="183.0" height="74" rx="3" fill="#96301d"/><rect x="76.0" y="916" width="123.6" height="7" rx="2" fill="#c2603f" opacity="0.95"/><rect x="76.0" y="930" width="120.1" height="4" rx="2" fill="#c2603f" opacity="0.5"/><rect x="259.0" y="900" width="183.0" height="74" rx="3" fill="#f0c9a0"/><rect x="271.0" y="916" width="99.0" height="7" rx="2" fill="#a83722" opacity="0.95"/><rect x="271.0" y="930" width="102.2" height="4" rx="2" fill="#a83722" opacity="0.5"/><rect x="454.0" y="900" width="183.0" height="74" rx="3" fill="#96301d"/><rect x="466.0" y="916" width="93.6" height="7" rx="2" fill="#c2603f" opacity="0.95"/><rect x="466.0" y="930" width="89.1" height="4" rx="2" fill="#c2603f" opacity="0.5"/><rect x="649.0" y="900" width="183.0" height="74" rx="3" fill="#96301d"/><rect x="661.0" y="916" width="83.1" height="7" rx="2" fill="#c2603f" opacity="0.95"/><rect x="661.0" y="930" width="138.1" height="4" rx="2" fill="#c2603f" opacity="0.5"/>

  <!-- Footer strap -->
  <rect x="64" y="1108" width="768" height="1" fill="#c2603f"/>
  <text x="64" y="1142" font-family="Helvetica, Arial, sans-serif" font-size="14" font-weight="700" letter-spacing="1.6" fill="#fdf3ef" opacity="0.82">Businesses  ·  Services  ·  Property  ·  Jobs  ·  Offers  ·  Community</text>
  <text x="832" y="1142" text-anchor="end" font-family="Helvetica, Arial, sans-serif" font-size="14" font-weight="700" letter-spacing="1.6" fill="#f0c9a0">vaaram.ca</text>
</svg>